<?xml version="1.0" encoding="utf-8"?>
<!-- Generator: Adobe Illustrator 22.1.0, SVG Export Plug-In . SVG Version: 6.00 Build 0)  -->
<svg version="1.1" id="Layer_1" xmlns="http://www.w3.org/2000/svg" xmlns:xlink="http://www.w3.org/1999/xlink" x="0px" y="0px"
	 viewBox="0 0 24 24" style="enable-background:new 0 0 24 24;" xml:space="preserve">
<style type="text/css">
	.st0{fill:#FFFFFF;}
	.st1{fill:none;}
</style>
<g transform="translate(-100 -117)">
	<g transform="translate(101.35 118.308)">
		<g>
			<path class="st0" d="M11.4,16c0,0.4-0.3,0.7-0.7,0.7S10,16.4,10,16c0-0.4,0.3-0.7,0.7-0.7C11.1,15.3,11.4,15.6,11.4,16L11.4,16z"
				/>
		</g>
		<g>
			<path class="st0" d="M13.5,17.7h-0.7v2.6H8.5v-2.6H7.8v2.6H5.3v1.1H16v-1.1h-2.5L13.5,17.7z"/>
		</g>
		<g>
			<path class="st0" d="M20.3,0H1.1C0.5,0,0,0.5,0,1.1v16c0,0.6,0.5,1.1,1.1,1.1h19.2c0.6,0,1.1-0.5,1.1-1.1v-16
				C21.4,0.5,20.9,0,20.3,0z M20.6,17.1c0,0.2-0.2,0.4-0.4,0.4h0H1.1c-0.2,0-0.4-0.2-0.4-0.4l0,0v-2.5h19.9V17.1z M0.7,13.9V1.1
				c0-0.2,0.2-0.4,0.4-0.4h19.2c0.2,0,0.4,0.2,0.4,0.4c0,0,0,0,0,0v12.8H0.7z"/>
			<path class="st0" d="M1.1,18.4c-0.7,0-1.3-0.6-1.3-1.3v-16c0-0.7,0.6-1.3,1.3-1.3h19.2c0.7,0,1.3,0.6,1.3,1.3v16
				c0,0.7-0.6,1.3-1.3,1.3H1.1z M1.1,0.3c-0.5,0-0.8,0.4-0.8,0.8v16c0,0.5,0.4,0.8,0.8,0.8h19.2c0.5,0,0.8-0.4,0.8-0.8v-16
				c0-0.5-0.4-0.8-0.8-0.8H1.1z M20.3,17.7H1.1c-0.3,0-0.6-0.3-0.6-0.6v-2.7h20.4v2.7C20.9,17.4,20.6,17.7,20.3,17.7z M1,14.9v2.2
				c0,0.1,0,0.1,0.1,0.1h19.2c0.1,0,0.1,0,0.1-0.1v-2.2H1z M20.9,14.1H0.5V1.1c0-0.3,0.3-0.6,0.6-0.6h19.2c0.3,0,0.6,0.3,0.6,0.6
				V14.1z M1,13.6h19.4V1.1c0-0.1,0-0.1-0.1-0.1H1.1C1,1,1,1,1,1.1V13.6z"/>
		</g>
	</g>
	<g transform="translate(100 117)">
		<g>
			<rect y="0" class="st1" width="24" height="24"/>
		</g>
	</g>
	<g transform="translate(107.625 120.721)">
		<g>
			<path class="st0" d="M7.9,2.2C7.6,2,7.3,1.8,7,1.7c-0.1,0-0.2,0-0.2,0.1c0,0.1,0,0.2,0.1,0.2c0,0,0,0,0,0
				c0.3,0.1,0.6,0.2,0.8,0.4c0.9,0.7,1.1,2,0.4,2.9l0,0.1C8,3.9,6.7,2.7,5.2,2.8c-0.2,0-0.3,0-0.5,0.1l0-0.1C5.2,2.3,5.8,2,6.4,2
				c0.1,0,0.2-0.1,0.2-0.2S6.5,1.7,6.4,1.7c-0.2,0-0.4,0-0.6,0.1C6.7,1.4,7.6,1.5,8.4,2c0.1,0,0.2,0,0.2,0c0,0,0-0.1,0-0.2
				c0-0.1,0-0.1,0-0.2C8.2,0.4,6.9-0.3,5.7,0.1c-0.5,0.2-1,0.5-1.3,1C3.8,0,2.4-0.3,1.3,0.3c-0.5,0.3-0.8,0.8-1,1.3
				c0,0.1,0,0.1,0,0.2c0,0,0,0.1,0,0.1C0.3,2,0.4,2,0.5,2c0,0,0,0,0,0c0.4-0.3,0.8-0.4,1.2-0.5c0.1,0,0.2-0.1,0.2-0.2
				c0-0.1-0.1-0.2-0.2-0.2c0,0,0,0,0,0c-0.4,0-0.7,0.1-1,0.3c0.4-1,1.6-1.5,2.6-1.1c0.9,0.4,1.4,1.3,1.2,2.2C4.1,2,3.5,1.6,2.8,1.3
				C2.6,1.3,2.4,1.2,2.2,1.2C2.1,1.2,2,1.3,2,1.4c0,0.1,0,0.2,0.1,0.2c0,0,0,0,0,0c0.3,0,0.6,0.1,0.9,0.2c-1.3-0.4-2.6,0.4-3,1.7
				c-0.3,0.9,0,1.9,0.8,2.5C0.9,6,1,6,1.1,5.9c0,0,0-0.1,0-0.1C1,4.5,1.9,3.3,3.3,3.1c0.2,0,0.4,0,0.6,0L3.5,4c0,0.1,0,0.2,0.1,0.2
				c0,0,0,0,0.1,0h0.1L3.4,5c0,0.1,0,0.2,0.1,0.2c0,0,0,0,0.1,0h0.1L3.4,6.1c0,0.1,0,0.2,0.1,0.2c0,0,0,0,0,0h0.1l-0.3,1
				c0,0.1,0,0.2,0.1,0.2c0,0,0,0,0,0h0.1L3.3,8.5c0,0.1,0,0.2,0.1,0.2c0,0,0,0,0,0h0.1L3.2,9.9c0,0.1,0,0.2,0.1,0.2c0,0,0,0,0,0h2.2
				c0.1,0,0.2-0.1,0.2-0.2c0,0,0,0,0,0L5.4,8.7h0.1c0.1,0,0.2-0.1,0.2-0.2c0,0,0,0,0,0L5.3,7.5h0.1c0.1,0,0.2-0.1,0.2-0.2
				c0,0,0,0,0,0l-0.3-1h0.1c0.1,0,0.2-0.1,0.2-0.2c0,0,0,0,0,0L5.2,5.2h0.1c0.1,0,0.2-0.1,0.2-0.2c0,0,0,0,0-0.1L5.1,4.2h0.1
				c0.1,0,0.2-0.1,0.2-0.2c0,0,0,0,0-0.1L5,3.2c1.3-0.2,2.6,0.7,2.8,2c0,0.2,0,0.4,0,0.6C7.8,5.9,7.8,6,7.9,6c0,0,0.1,0,0.1,0
				c1-0.9,1.1-2.4,0.3-3.4C8.2,2.4,8.1,2.3,7.9,2.2L7.9,2.2z M5.8,0.4c1-0.3,2,0.2,2.4,1.1C7,0.9,5.6,1.2,4.8,2.2
				c0-0.3-0.1-0.5-0.2-0.8C4.8,1,5.3,0.6,5.8,0.4z M1.9,3.4c-0.6,0.5-1,1.2-1.1,2l0-0.1C0.1,4.4,0.3,3.1,1.2,2.4
				c0.9-0.7,2.2-0.5,2.9,0.4l0,0.1C3.3,2.7,2.5,2.9,1.9,3.4z M5.3,9.8H3.6l0.3-1.1H5L5.3,9.8z M5.2,8.4H3.6l0.2-0.9H5L5.2,8.4z
				 M5.2,7.2H3.7l0.2-0.9h1L5.2,7.2z M5.1,6H3.8L4,5.2h0.9L5.1,6z M5.1,4.9H3.8l0.3-0.7h0.6L5.1,4.9z M4.9,3.9h-1l0.3-0.7
				c0.1,0,0.1,0,0.2,0.1h0h0h0h0h0h0h0h0h0c0.1,0,0.1,0,0.2-0.1L4.9,3.9z"/>
		</g>
	</g>
</g>
</svg>
